<?xml version="1.0" encoding="UTF-8"?>
<!DOCTYPE svg PUBLIC "-//W3C//DTD SVG 1.1//EN" "http://www.w3.org/Graphics/SVG/1.1/DTD/svg11.dtd">
<!-- Creator: CorelDRAW -->
<svg xmlns="http://www.w3.org/2000/svg" xml:space="preserve" width="140px" height="41px" version="1.1" style="shape-rendering:geometricPrecision; text-rendering:geometricPrecision; image-rendering:optimizeQuality; fill-rule:evenodd; clip-rule:evenodd"
viewBox="0 0 140 41"
 xmlns:xlink="http://www.w3.org/1999/xlink"
 xmlns:xodm="http://www.corel.com/coreldraw/odm/2003">
 <defs>
  <style type="text/css">
   <![CDATA[
    .fil2 {fill:#C2D501}
    .fil1 {fill:#FEFEFE}
    .fil0 {fill:white}
   ]]>
  </style>
 </defs>
 <g id="Capa_x0020_1">
  <metadata id="CorelCorpID_0Corel-Layer"/>
  <path class="fil0" d="M23.14 19.74l0.48 0c3.71,0 6.73,3.03 6.73,6.73l0 1.89 -4.18 0 -5.24 0 0 1.03 0 0c0,1.44 1.18,2.62 2.62,2.62l0 0c1.2,0 2.22,-0.82 2.53,-1.93 0.06,-0.22 0.09,-0.46 0.09,-0.69l4.13 0c-0.43,3.3 -3.27,5.87 -6.68,5.87l-0.48 0c-3.7,0 -6.73,-3.03 -6.73,-6.74l0 -2.05c0,-3.7 3.03,-6.73 6.73,-6.73zm0.16 3.74l0.5 0c1.2,0 2.2,0.9 2.35,2.06l-5.2 0c0.15,-1.16 1.15,-2.06 2.35,-2.06z"/>
  <path class="fil0" d="M0.62 35.26l1.97 0c1.08,0 1.96,-0.89 1.96,-1.97l0 -5.58 6.09 0c2.84,0 5.17,-2.32 5.17,-5.17l0 -2.12c0,-2.84 -2.33,-5.17 -5.17,-5.17l-6.09 0 -3.93 0 0 12.46 0 7.55zm3.93 -16.26l4.67 0c1.34,0 2.44,1.09 2.44,2.43l0 0c0,1.34 -1.1,2.43 -2.44,2.43l-4.67 0 0 -4.86z"/>
  <circle class="fil0" cx="49.27" cy="14.42" r="2.26"/>
  <circle class="fil0" cx="52.15" cy="8.8" r="2.75"/>
  <circle class="fil1" cx="58.5" cy="5.33" r="3.55"/>
  <circle class="fil1" cx="67.69" cy="6.85" r="4.68"/>
  <path class="fil0" d="M32.19 35.1l4.14 0c0,-2.47 0,-4.94 0,-7.42 0,-2.89 2.1,-4.15 4.8,-3.83l0 -4.2c-2.14,-0.04 -3.74,0.23 -4.8,1.61l0 -0.01c-0.64,-0.91 -1.65,-1.28 -2.72,-1.28l-1.42 0 0 15.13z"/>
  <path class="fil0" d="M51.56 19.97l4.2 0 0 15.29 -4.2 0 0 -0.66c-0.46,0.37 -1.09,0.66 -1.57,0.66 -0.99,0 -1.97,0 -2.95,0 -2.24,-0.15 -4.06,-2.39 -4.21,-4.57 -0.01,-0.25 -0.01,-0.5 -0.01,-0.75l0 -9.97c0.66,0 1.85,-0.1 2.43,0.11 1.09,0.39 1.79,1.23 1.79,2.39l0 7.49c0,1.24 0.34,1.5 1.66,1.61 2.11,0.17 2.86,-1.6 2.86,-3.38l0 -8.22z"/>
  <path class="fil2" d="M77.72 15.25l-4.14 0 -0.05 0 -0.89 0 -4.74 13.11c-1.96,-3.8 -3.32,-10.58 -5.66,-12.56 -0.6,-0.51 -0.93,-0.55 -1.7,-0.55l-2.91 0 0 20.01 4.16 0 0.03 -10.57 4.39 10.57 3.33 0 4.07 -10.57 -0.08 10.57 4.19 0 0 -20.01z"/>
  <path class="fil2" d="M86.78 19.97c-4.35,0 -7.87,3.42 -7.87,7.64 0,4.22 3.52,7.65 7.87,7.65 4.35,0 7.87,-3.43 7.87,-7.65 0,-4.22 -3.52,-7.64 -7.87,-7.64zm-0.07 3.51c1.91,0 3.46,1.86 3.46,4.15 0,2.3 -1.55,4.16 -3.46,4.16 -1.92,0 -3.47,-1.86 -3.47,-4.16 0,-2.29 1.55,-4.15 3.47,-4.15z"/>
  <path class="fil2" d="M117.56 19.74l0.48 0c3.71,0 6.74,3.03 6.74,6.73l0 1.89 -4.19 0 -5.24 0 0 1.03 0 0c0,1.44 1.18,2.62 2.62,2.62l0 0c1.2,0 2.23,-0.82 2.53,-1.93 0.06,-0.22 0.09,-0.46 0.09,-0.69l4.13 0c-0.43,3.3 -3.27,5.87 -6.68,5.87l-0.48 0c-3.7,0 -6.73,-3.03 -6.73,-6.74l0 -2.05c0,-3.7 3.03,-6.73 6.73,-6.73zm0.16 3.74l0.5 0c1.2,0 2.2,0.9 2.36,2.06l-5.21 0c0.15,-1.16 1.15,-2.06 2.35,-2.06z"/>
  <path class="fil2" d="M107.57 20.75c0.92,0.66 1.51,1.66 1.81,2.78l0 11.73 -3.83 0 0 -9.72 -0.01 0c-0.11,-1.34 -1.24,-2.41 -2.61,-2.41l-0.7 0c-1.37,0 -2.51,1.07 -2.61,2.41l-0.01 0 0 9.72 -3.86 0 0 -15.29 1.04 0c0.49,0 1.1,-0.05 1.56,0.11 0.69,0.24 1.16,0.88 1.26,1.72 0.41,-1.35 1.82,-1.84 3.1,-1.84l2.19 0c1.03,0 1.83,0.18 2.67,0.79z"/>
  <path class="fil2" d="M134.94 19.97l4.44 0c-2.21,5.87 -4.42,11.74 -6.63,17.62 -0.19,0.5 -0.48,1.43 -0.81,1.8 -0.39,0.46 -0.85,0.83 -1.45,0.83l-3.25 0c0.62,-1.53 1.23,-3.06 1.85,-4.59 0.35,-0.87 0.51,-1.96 0.17,-2.84l-4.97 -12.82c1.03,0 2.06,0 3.08,0 0.92,0 1.65,0.81 1.97,1.6l2.77 6.79 2.83 -8.39z"/>
 </g>
</svg>
